<svg width="17" height="17" viewBox="0 0 17 17" fill="none" xmlns="http://www.w3.org/2000/svg">
<path fill-rule="evenodd" clip-rule="evenodd" d="M0.46899 0.480627C0.768816 0.180337 1.17565 0.0114525 1.6 0.0111246L14.4 0.00123609C14.8243 0.000908261 15.2314 0.169164 15.5317 0.46899C15.832 0.768817 16.0009 1.17565 16.0012 1.6L16.0028 3.66879C16.003 4.09306 15.8348 4.50023 15.535 4.80044L10.4077 9.93559L10.4093 12.0043C10.4094 12.2165 10.3253 12.42 10.1754 12.5702L6.97785 15.7726C6.74923 16.0016 6.40519 16.0703 6.10616 15.9467C5.80712 15.8231 5.61198 15.5316 5.61173 15.208L5.60766 9.93939L0.472508 4.81216C0.172251 4.51241 0.00325285 4.1056 0.00283444 3.68132L0.00123607 1.61236C0.000908243 1.18801 0.169164 0.780916 0.46899 0.480627ZM14.4012 1.60123L1.60123 1.61112L1.60283 3.67975L6.73799 8.80697C7.03824 9.10672 7.20724 9.51354 7.20766 9.93781L7.21024 13.2754L8.809 11.6742L8.80766 9.93674C8.80742 9.51247 8.9757 9.10531 9.2755 8.8051L14.4027 3.66994L14.4012 1.60123Z" fill="#111827"/>
</svg>
