<svg width="48" height="48" viewBox="0 0 48 48" fill="none" xmlns="http://www.w3.org/2000/svg">
<path d="M8 0.5H40C44.1421 0.5 47.5 3.85786 47.5 8V40C47.5 44.1421 44.1421 47.5 40 47.5H8C3.85786 47.5 0.5 44.1421 0.5 40V8C0.500001 3.85786 3.85787 0.5 8 0.5Z" stroke="#004A98"/>
<path d="M29.3333 29.3333C29.3333 29.5101 29.2631 29.6797 29.1381 29.8047C29.013 29.9298 28.8435 30 28.6667 30H19.3333C19.1565 30 18.9869 29.9298 18.8619 29.8047C18.7369 29.6797 18.6667 29.5101 18.6667 29.3333V23.3333H16.6667L23.5513 17.0747C23.6741 16.963 23.834 16.9011 24 16.9011C24.1659 16.9011 24.3259 16.963 24.4487 17.0747L31.3333 23.3333H29.3333V29.3333ZM23.3333 24.6667V28.6667H24.6667V24.6667H23.3333Z" fill="#004A98"/>
</svg>
