<svg width="48" height="48" viewBox="0 0 48 48" fill="none" xmlns="http://www.w3.org/2000/svg">
<path d="M10 0.5H37.998C43.2447 0.500019 47.498 4.75331 47.498 10V37.998C47.498 43.2447 43.2447 47.498 37.998 47.498H10C4.75331 47.498 0.500023 43.2447 0.5 37.998V10C0.5 4.7533 4.75329 0.5 10 0.5Z" fill="white"/>
<path d="M10 0.5H37.998C43.2447 0.500019 47.498 4.75331 47.498 10V37.998C47.498 43.2447 43.2447 47.498 37.998 47.498H10C4.75331 47.498 0.500023 43.2447 0.5 37.998V10C0.5 4.7533 4.75329 0.5 10 0.5Z" stroke="#004A98"/>
<path d="M22.9995 30.9995C27.4178 30.9995 30.9995 27.4178 30.9995 22.9995C30.9995 18.5812 27.4178 14.9995 22.9995 14.9995C18.5812 14.9995 14.9995 18.5812 14.9995 22.9995C14.9995 27.4178 18.5812 30.9995 22.9995 30.9995Z" stroke="#004A98" stroke-width="1.99992" stroke-linecap="round" stroke-linejoin="round"/>
<path d="M32.9988 32.9988L28.6988 28.6988" stroke="#004A98" stroke-width="1.99992" stroke-linecap="round" stroke-linejoin="round"/>
</svg>
