<svg width="48" height="48" viewBox="0 0 48 48" fill="none" xmlns="http://www.w3.org/2000/svg">
<path d="M10 0.5H37.998C43.2447 0.500019 47.498 4.75331 47.498 10V37.998C47.498 43.2447 43.2447 47.498 37.998 47.498H10C4.75331 47.498 0.500023 43.2447 0.5 37.998V10C0.5 4.7533 4.75329 0.5 10 0.5Z" fill="white"/>
<path d="M10 0.5H37.998C43.2447 0.500019 47.498 4.75331 47.498 10V37.998C47.498 43.2447 43.2447 47.498 37.998 47.498H10C4.75331 47.498 0.500023 43.2447 0.5 37.998V10C0.5 4.7533 4.75329 0.5 10 0.5Z" stroke="#004A98"/>
<path d="M24.2195 13.9995H23.7795C23.2491 13.9995 22.7404 14.2102 22.3653 14.5853C21.9902 14.9604 21.7795 15.4691 21.7795 15.9995V16.1795C21.7791 16.5302 21.6866 16.8747 21.511 17.1783C21.3355 17.482 21.0832 17.7341 20.7795 17.9095L20.3495 18.1595C20.0455 18.335 19.7006 18.4275 19.3495 18.4275C18.9984 18.4275 18.6535 18.335 18.3495 18.1595L18.1995 18.0795C17.7406 17.8148 17.1953 17.743 16.6835 17.8798C16.1717 18.0167 15.735 18.351 15.4695 18.8095L15.2495 19.1895C14.9848 19.6484 14.9129 20.1937 15.0498 20.7055C15.1867 21.2173 15.521 21.654 15.9795 21.9195L16.1295 22.0195C16.4318 22.194 16.6831 22.4446 16.8585 22.7463C17.034 23.0481 17.1274 23.3905 17.1295 23.7395V24.2495C17.1309 24.6019 17.0391 24.9485 16.8635 25.254C16.6879 25.5596 16.4347 25.8133 16.1295 25.9895L15.9795 26.0795C15.521 26.3451 15.1867 26.7817 15.0498 27.2935C14.9129 27.8053 14.9848 28.3506 15.2495 28.8095L15.4695 29.1895C15.735 29.648 16.1717 29.9823 16.6835 30.1192C17.1953 30.2561 17.7406 30.1842 18.1995 29.9195L18.3495 29.8395C18.6535 29.664 18.9984 29.5716 19.3495 29.5716C19.7006 29.5716 20.0455 29.664 20.3495 29.8395L20.7795 30.0895C21.0832 30.2649 21.3355 30.517 21.511 30.8207C21.6866 31.1243 21.7791 31.4688 21.7795 31.8195V31.9995C21.7795 32.5299 21.9902 33.0387 22.3653 33.4137C22.7404 33.7888 23.2491 33.9995 23.7795 33.9995H24.2195C24.7499 33.9995 25.2586 33.7888 25.6337 33.4137C26.0088 33.0387 26.2195 32.5299 26.2195 31.9995V31.8195C26.2199 31.4688 26.3124 31.1243 26.488 30.8207C26.6635 30.517 26.9158 30.2649 27.2195 30.0895L27.6495 29.8395C27.9535 29.664 28.2984 29.5716 28.6495 29.5716C29.0006 29.5716 29.3455 29.664 29.6495 29.8395L29.7995 29.9195C30.2584 30.1842 30.8037 30.2561 31.3155 30.1192C31.8273 29.9823 32.2639 29.648 32.5295 29.1895L32.7495 28.7995C33.0142 28.3406 33.0861 27.7953 32.9492 27.2835C32.8123 26.7717 32.478 26.3351 32.0195 26.0695L31.8695 25.9895C31.5643 25.8133 31.3111 25.5596 31.1355 25.254C30.9598 24.9485 30.8681 24.6019 30.8695 24.2495V23.7495C30.8681 23.3971 30.9598 23.0506 31.1355 22.745C31.3111 22.4394 31.5643 22.1857 31.8695 22.0095L32.0195 21.9195C32.478 21.654 32.8123 21.2173 32.9492 20.7055C33.0861 20.1937 33.0142 19.6484 32.7495 19.1895L32.5295 18.8095C32.2639 18.351 31.8273 18.0167 31.3155 17.8798C30.8037 17.743 30.2584 17.8148 29.7995 18.0795L29.6495 18.1595C29.3455 18.335 29.0006 18.4275 28.6495 18.4275C28.2984 18.4275 27.9535 18.335 27.6495 18.1595L27.2195 17.9095C26.9158 17.7341 26.6635 17.482 26.488 17.1783C26.3124 16.8747 26.2199 16.5302 26.2195 16.1795V15.9995C26.2195 15.4691 26.0088 14.9604 25.6337 14.5853C25.2586 14.2102 24.7499 13.9995 24.2195 13.9995Z" stroke="#004A98" stroke-width="1.99992" stroke-linecap="round" stroke-linejoin="round"/>
<path d="M23.9991 26.9991C25.656 26.9991 26.9991 25.656 26.9991 23.9991C26.9991 22.3423 25.656 20.9991 23.9991 20.9991C22.3423 20.9991 20.9991 22.3423 20.9991 23.9991C20.9991 25.656 22.3423 26.9991 23.9991 26.9991Z" stroke="#004A98" stroke-width="1.99992" stroke-linecap="round" stroke-linejoin="round"/>
</svg>
